<?xml version="1.0" standalone="no"?>
<!DOCTYPE svg PUBLIC "-//W3C//DTD SVG 20010904//EN"
 "http://www.w3.org/TR/2001/REC-SVG-20010904/DTD/svg10.dtd">
<svg version="1.0" xmlns="http://www.w3.org/2000/svg"
 width="512.000000pt" height="512.000000pt" viewBox="0 0 512.000000 512.000000"
 preserveAspectRatio="xMidYMid meet">
<metadata>
Created by potrace 1.14, written by Peter Selinger 2001-2017
</metadata>
<g transform="translate(0.000000,512.000000) scale(0.100000,-0.100000)"
fill="#000000" stroke="none">
<path d="M320 5113 c-94 -18 -211 -104 -264 -195 -59 -102 -56 45 -53 -2383
l2 -2230 33 -68 c36 -74 110 -155 169 -185 107 -55 -42 -52 2353 -52 2141 0
2210 0 2269 19 123 38 216 123 263 239 l23 57 0 2250 0 2250 -34 69 c-43 89
-113 159 -199 199 l-67 32 -2235 1 c-1229 1 -2246 -1 -2260 -3z m2390 -1214
c115 -12 139 -17 222 -38 350 -91 570 -319 613 -636 7 -51 7 -227 0 -282 -10
-78 -44 -193 -77 -259 -63 -126 -196 -258 -330 -329 l-55 -28 27 -51 c15 -28
71 -136 125 -241 54 -104 124 -239 155 -300 198 -381 260 -506 255 -514 -3 -5
-155 -9 -350 -9 l-345 0 -237 477 -238 476 -175 0 -175 0 -2 -455 c-1 -250 -2
-465 -2 -477 l-1 -22 -322 2 -323 2 -1 1347 0 1347 580 -1 c320 0 615 -5 656
-9z"/>
<path d="M2124 3036 l1 -371 246 1 c270 0 317 8 400 64 176 118 179 476 6 606
-80 61 -114 67 -398 69 l-256 2 1 -371z"/>
</g>
</svg>
